<svg width="20" height="20" viewBox="0 0 18 15" fill="none" xmlns="http://www.w3.org/2000/svg">
<path d="M7.8915 7.84967C7.70817 7.84134 7.52484 7.83301 7.33317 7.83301C5.3165 7.83301 3.43317 8.39134 1.82484 9.34967C1.0915 9.78301 0.666504 10.5997 0.666504 11.458V12.833C0.666504 13.2913 1.0415 13.6663 1.49984 13.6663H8.38317C7.72484 12.7247 7.33317 11.5747 7.33317 10.333C7.33317 9.44134 7.5415 8.60801 7.8915 7.84967Z" fill="black" fill-opacity="0.56"/>
<path d="M7.33333 6.99967C9.17428 6.99967 10.6667 5.50729 10.6667 3.66634C10.6667 1.82539 9.17428 0.333008 7.33333 0.333008C5.49238 0.333008 4 1.82539 4 3.66634C4 5.50729 5.49238 6.99967 7.33333 6.99967Z" fill="black" fill-opacity="0.56"/>
<path d="M16.2914 10.3331C16.2914 10.1498 16.2664 9.98314 16.2414 9.80814L16.9414 9.1998C17.0914 9.06647 17.1247 8.8498 17.0247 8.6748L16.5331 7.8248C16.4331 7.6498 16.2247 7.5748 16.0414 7.64147L15.1581 7.94147C14.8914 7.71647 14.5914 7.54147 14.2581 7.41647L14.0747 6.50814C14.0331 6.31647 13.8664 6.1748 13.6664 6.1748H12.6831C12.4831 6.1748 12.3164 6.31647 12.2747 6.50814L12.0914 7.41647C11.7581 7.54147 11.4581 7.71647 11.1914 7.94147L10.3081 7.64147C10.1164 7.5748 9.91641 7.65814 9.81641 7.8248L9.32474 8.6748C9.22474 8.8498 9.25807 9.06647 9.40807 9.1998L10.1081 9.80814C10.0831 9.98314 10.0581 10.1498 10.0581 10.3331C10.0581 10.5165 10.0831 10.6831 10.1081 10.8581L9.40807 11.4665C9.25807 11.5998 9.22474 11.8165 9.32474 11.9915L9.81641 12.8415C9.91641 13.0165 10.1247 13.0915 10.3081 13.0248L11.1914 12.7248C11.4581 12.9498 11.7581 13.1248 12.0914 13.2498L12.2747 14.1581C12.3164 14.3498 12.4831 14.4915 12.6831 14.4915H13.6664C13.8664 14.4915 14.0331 14.3498 14.0747 14.1581L14.2581 13.2498C14.5914 13.1248 14.8914 12.9498 15.1581 12.7248L16.0414 13.0248C16.2331 13.0915 16.4331 13.0081 16.5331 12.8415L17.0247 11.9915C17.1247 11.8165 17.0914 11.5998 16.9414 11.4665L16.2414 10.8581C16.2664 10.6831 16.2914 10.5165 16.2914 10.3331ZM13.1664 11.9998C12.2497 11.9998 11.4997 11.2498 11.4997 10.3331C11.4997 9.41647 12.2497 8.66647 13.1664 8.66647C14.0831 8.66647 14.8331 9.41647 14.8331 10.3331C14.8331 11.2498 14.0831 11.9998 13.1664 11.9998Z" fill="black" fill-opacity="0.56"/>
</svg>
