<svg width="40" height="40" viewBox="0 0 40 40" fill="none" xmlns="http://www.w3.org/2000/svg">
<rect width="40" height="40" rx="20" fill="#3268D9"/>
<path d="M27.5 21.25H21.25V27.5C21.25 28.1875 20.6875 28.75 20 28.75C19.3125 28.75 18.75 28.1875 18.75 27.5V21.25H12.5C11.8125 21.25 11.25 20.6875 11.25 20C11.25 19.3125 11.8125 18.75 12.5 18.75H18.75V12.5C18.75 11.8125 19.3125 11.25 20 11.25C20.6875 11.25 21.25 11.8125 21.25 12.5V18.75H27.5C28.1875 18.75 28.75 19.3125 28.75 20C28.75 20.6875 28.1875 21.25 27.5 21.25Z" fill="white"/>
</svg>
